<?xml version="1.0" encoding="utf-8"?>
<!-- Generator: Adobe Illustrator 22.1.0, SVG Export Plug-In . SVG Version: 6.00 Build 0)  -->
<svg version="1.1" id="Layer_1" xmlns="http://www.w3.org/2000/svg" xmlns:xlink="http://www.w3.org/1999/xlink" x="0px" y="0px"
	 viewBox="0 0 360 99" style="enable-background:new 0 0 360 99;" xml:space="preserve">
<style type="text/css">
	.st0{clip-path:url(#SVGID_2_);fill:#95C93D;}
	.st1{clip-path:url(#SVGID_2_);fill:#59AA47;}
	.st2{clip-path:url(#SVGID_2_);fill:#008035;}
	.st3{clip-path:url(#SVGID_2_);fill:#FFFFFF;}
</style>
<g>
	<g>
		<defs>
			<rect id="SVGID_1_" x="6.3" y="6.2" width="346.4" height="85.6"/>
		</defs>
		<clipPath id="SVGID_2_">
			<use xlink:href="#SVGID_1_"  style="overflow:visible;"/>
		</clipPath>
		<path class="st0" d="M34.5,32.1H12.2c-1.9,0-3.4,1.5-3.4,3.4c0,1.9,1.5,3.4,3.4,3.4h22.3c1.9,0,3.4-1.5,3.4-3.4
			C37.9,33.6,36.4,32.1,34.5,32.1"/>
		<path class="st0" d="M65,35.4V13.1c0-1.9-1.5-3.4-3.4-3.4c-1.9,0-3.4,1.5-3.4,3.4v22.3c0,1.9,1.5,3.4,3.4,3.4
			C63.5,38.8,65,37.3,65,35.4"/>
		<path class="st0" d="M37.9,84.9V62.6c0-1.9-1.5-3.4-3.4-3.4c-1.9,0-3.4,1.5-3.4,3.4v22.3c0,1.9,1.5,3.4,3.4,3.4
			C36.4,88.3,37.9,86.8,37.9,84.9"/>
		<path class="st0" d="M84,59.2H61.6c-1.9,0-3.4,1.5-3.4,3.4c0,1.9,1.5,3.4,3.4,3.4H84c1.9,0,3.4-1.5,3.4-3.4
			C87.3,60.7,85.8,59.2,84,59.2"/>
		<path class="st1" d="M13.1,49c0,1.9-1.5,3.4-3.4,3.4c-1.9,0-3.4-1.5-3.4-3.4c0-1.9,1.5-3.4,3.4-3.4C11.6,45.6,13.1,47.1,13.1,49"
			/>
		<path class="st1" d="M24.4,21.9c0,1.9-1.5,3.4-3.4,3.4c-1.9,0-3.4-1.5-3.4-3.4c0-1.9,1.5-3.4,3.4-3.4C22.8,18.5,24.4,20,24.4,21.9
			"/>
		<path class="st1" d="M78.6,21.9c0,1.9-1.5,3.4-3.4,3.4c-1.9,0-3.4-1.5-3.4-3.4c0-1.9,1.5-3.4,3.4-3.4C77.1,18.5,78.6,20,78.6,21.9
			"/>
		<path class="st1" d="M24.4,76.1c0,1.9-1.5,3.4-3.4,3.4c-1.9,0-3.4-1.5-3.4-3.4c0-1.9,1.5-3.4,3.4-3.4
			C22.8,72.7,24.4,74.2,24.4,76.1"/>
		<path class="st1" d="M78.6,76.1c0,1.9-1.5,3.4-3.4,3.4c-1.9,0-3.4-1.5-3.4-3.4c0-1.9,1.5-3.4,3.4-3.4
			C77.1,72.7,78.6,74.2,78.6,76.1"/>
		<path class="st1" d="M89.8,49c0,1.9-1.5,3.4-3.4,3.4c-1.9,0-3.4-1.5-3.4-3.4c0-1.9,1.5-3.4,3.4-3.4C88.3,45.6,89.8,47.1,89.8,49"
			/>
		<path class="st1" d="M51.5,10.7c0,1.9-1.5,3.4-3.4,3.4c-1.9,0-3.4-1.5-3.4-3.4c0-1.9,1.5-3.4,3.4-3.4C49.9,7.3,51.5,8.8,51.5,10.7
			"/>
		<path class="st1" d="M51.5,87.4c0,1.9-1.5,3.4-3.4,3.4c-1.9,0-3.4-1.5-3.4-3.4c0-1.9,1.5-3.4,3.4-3.4C50,84,51.5,85.5,51.5,87.4"
			/>
		<path class="st1" d="M31.1,13.1v8.8c0,1.9,1.5,3.4,3.4,3.4c1.9,0,3.4-1.5,3.4-3.4v-8.8c0-1.9-1.5-3.4-3.4-3.4
			C32.6,9.7,31.1,11.3,31.1,13.1"/>
		<path class="st1" d="M84,32.1h-8.8c-1.9,0-3.4,1.5-3.4,3.4c0,1.9,1.5,3.4,3.4,3.4H84c1.9,0,3.4-1.5,3.4-3.4
			C87.3,33.6,85.8,32.1,84,32.1"/>
		<path class="st1" d="M65,84.9v-8.8c0-1.9-1.5-3.4-3.4-3.4c-1.9,0-3.4,1.5-3.4,3.4v8.8c0,1.9,1.5,3.4,3.4,3.4
			C63.5,88.3,65,86.8,65,84.9"/>
		<path class="st1" d="M12.2,66H21c1.9,0,3.4-1.5,3.4-3.4c0-1.9-1.5-3.4-3.4-3.4h-8.8c-1.9,0-3.4,1.5-3.4,3.4
			C8.8,64.4,10.3,66,12.2,66"/>
		<path class="st2" d="M41.3,45.6H21c-1.9,0-3.4,1.5-3.4,3.4c0,1.9,1.5,3.4,3.4,3.4h20.3c1.9,0,3.4-1.5,3.4-3.4
			C44.7,47.1,43.2,45.6,41.3,45.6"/>
		<path class="st2" d="M44.7,62.6v13.6c0,1.9,1.5,3.4,3.4,3.4c1.9,0,3.4-1.5,3.4-3.4V62.6c0-1.9-1.5-3.4-3.4-3.4
			C46.2,59.2,44.7,60.7,44.7,62.6"/>
		<path class="st2" d="M44.7,21.9v13.6c0,1.9,1.5,3.4,3.4,3.4c1.9,0,3.4-1.5,3.4-3.4V21.9c0-1.9-1.5-3.4-3.4-3.4
			C46.2,18.5,44.7,20,44.7,21.9"/>
		<path class="st2" d="M75.2,45.6H54.9c-1.9,0-3.4,1.5-3.4,3.4c0,1.9,1.5,3.4,3.4,3.4h20.3c1.9,0,3.4-1.5,3.4-3.4
			C78.6,47.1,77.1,45.6,75.2,45.6"/>
		<path class="st1" d="M236.7,22.3c0,2-1.7,3.7-3.7,3.7c-2,0-3.7-1.7-3.7-3.7c0-2,1.7-3.7,3.7-3.7C235.1,18.7,236.7,20.3,236.7,22.3
			"/>
		<path class="st3" d="M141.9,58.7c-0.6,0-1.1,0.1-1.6,0.4c-2.8,1.4-5.3,1.9-8.4,1.9c-6.2,0-10.2-4.7-10.2-11.9
			c0-7.4,4.2-12.4,10.4-12.4c1.8,0,4.5,0.2,7.3,1.1c0.3,0.1,0.7,0.2,1.1,0.2c1.4,0,2.6-0.8,3.2-2l0.7-1.5c-4-2.4-8.6-3.3-12.4-3.3
			c-10.1,0-16.7,7.1-16.7,17.8c0,10.4,6.3,17.4,15.7,17.4c6.1,0,9.7-1.1,14.7-4.9l-0.6-1.1C144.4,59.5,143.2,58.7,141.9,58.7"/>
		<path class="st3" d="M328.2,31.4c-3.7,0-7.3,0.6-13.8,2.3l0.3,1.6c0.3,1.7,1.8,2.9,3.6,2.9c0.3,0,0.5,0,0.7-0.1
			c3.2-0.7,5.9-1,8.1-1c5.7,0,7.1,1.8,7.1,8.4c-3.2-0.1-5.1-0.1-9-0.1c-9.5,0-14.1,3.7-14.1,10.8c0,7.3,3.9,10.3,11.5,10.3
			c5.2,0,8.7-2.4,11.7-4.9v1.4c0,1.6,1.3,2.8,2.8,2.8h3.6V45.6C340.7,35.6,337.6,31.4,328.2,31.4 M334.2,56.6
			c-2.6,2.9-6.2,5.2-9.8,5.2c-4.9,0-7.4-2.1-7.4-6.1c0-4.4,2.9-5.5,9-5.5h8.3V56.6z"/>
		<path class="st3" d="M231.9,32h-2.1v33.9h3.6c1.6,0,2.8-1.3,2.8-2.8V36.4C236.2,34,234.3,32,231.9,32"/>
		<path class="st3" d="M166.3,31.4c-10.2,0-17,7.1-17,17.8c0,10.4,6.8,17.4,16.9,17.4c10.3,0,17.1-7,17.1-17.4
			C183.3,38.5,176.5,31.4,166.3,31.4 M166.2,61c-6.4,0-10.6-4.7-10.6-11.8c0-7.4,4.3-12.3,10.7-12.3c6.4,0,10.7,4.9,10.7,12.3
			C177,56.3,172.7,61,166.2,61"/>
		<path class="st3" d="M266.7,31.4c-4.9,0-9.3,2.2-12.6,5.2V23.4c0-2.4-2-4.4-4.4-4.4h-2.1v46.9h3.6c1.6,0,2.8-1.3,2.8-2.8v-1.6
			c3.2,3,6,5.1,11.8,5.1c7.3,0,14.2-5,14.2-17.7C280.1,36.2,275,31.4,266.7,31.4 M264,61.2c-3.8,0-7.2-2.7-9.9-5.7V42.6
			c2.7-2.9,6.5-5.7,10.6-5.7c5.4,0,9.1,3.1,9.1,12C273.8,57.8,269.1,61.2,264,61.2"/>
		<path class="st3" d="M221.7,61.1c-4.4-0.1-5.7-1.9-5.7-6.5V23.4c0-2.4-2-4.4-4.4-4.4h-2.1v35.5c0,7.9,3.3,11.7,11.3,11.7
			c1,0,1.9,0,2.7-0.1l0-3.3C223.6,61.8,222.7,61.1,221.7,61.1"/>
		<path class="st3" d="M202.9,61.1c-4.4-0.1-5.7-1.9-5.7-6.5V23.4c0-2.4-2-4.4-4.4-4.4h-2.1v35.5c0,7.9,3.3,11.7,11.3,11.7
			c1,0,1.9,0,2.7-0.1l0-3.3C204.7,61.8,203.9,61.1,202.9,61.1"/>
		<path class="st3" d="M294.2,38.6v-2.2c0-2.4-2-4.4-4.4-4.4h-2.1v33.9h3.6c1.6,0,2.8-1.3,2.8-2.8V46.4c1.7-5.4,5.3-8.7,9.9-8.7
			c0.5,0,1,0,1.5,0c1.5,0,2.7-1.2,2.8-2.6l0.2-3.5c-1.9-0.2-2.6-0.2-3.8-0.2C300.4,31.4,296,34.4,294.2,38.6"/>
		<path class="st3" d="M348.6,40.4c-2.4,0-4.1-1.8-4.1-4.2c0-2.5,1.9-4.2,4.1-4.2c2.2,0,4.1,1.7,4.1,4.2
			C352.7,38.7,350.8,40.4,348.6,40.4 M348.6,32.8c-1.8,0-3.2,1.4-3.2,3.4c0,1.9,1.2,3.4,3.2,3.4c1.8,0,3.2-1.4,3.2-3.4
			C351.8,34.2,350.4,32.8,348.6,32.8 M347.8,38.6h-0.8V34h1.7c1.1,0,1.7,0.4,1.7,1.3c0,0.8-0.5,1.2-1.2,1.3l1.3,2h-0.9l-1.2-2h-0.7
			V38.6z M348.7,36c0.6,0,1.1-0.1,1.1-0.7c0-0.6-0.5-0.6-1-0.6h-0.9V36H348.7z"/>
	</g>
</g>
</svg>
